<?xml version="1.0" encoding="utf-8"?>
<!-- Generator: Adobe Illustrator 16.0.0, SVG Export Plug-In . SVG Version: 6.00 Build 0)  -->
<!DOCTYPE svg PUBLIC "-//W3C//DTD SVG 1.1//EN" "http://www.w3.org/Graphics/SVG/1.1/DTD/svg11.dtd">
<svg version="1.1" xmlns="http://www.w3.org/2000/svg" xmlns:xlink="http://www.w3.org/1999/xlink" x="0px" y="0px"
	 width="1304.441px" height="275.245px" viewBox="0 0 1304.441 275.245" enable-background="new 0 0 1304.441 275.245"
	 xml:space="preserve">
<g id="Layer_1">
	<path fill-rule="evenodd" clip-rule="evenodd" fill="#C54613" d="M1207.504,40.089c-3.053-2.224-7.418-3.336-13.096-3.336
		c-2.65,0-8.141,0.834-16.469,2.502c-9.105,1.854-14.918,2.952-17.434,3.296c-2.277,5.163-3.818,9.585-4.621,13.266h0.521
		c7.232,0.396,13.9,1.35,20.006,2.858c5.41,1.324,9.695,2.939,12.855,4.847c3.695-3.125,8.047-4.688,13.055-4.688
		c1.5,0,2.945,0.146,4.338,0.438c1.34-0.769,2.531-1.867,3.576-3.297c1.393-1.933,2.088-3.785,2.088-5.56
		C1212.325,45.861,1210.719,42.419,1207.504,40.089 M1206.26,36.516c2.303,1.138,4.164,2.727,5.584,4.765
		c1.605,2.304,2.41,4.952,2.41,7.942c0,2.146-0.43,4.276-1.285,6.395c-0.67,1.642-1.58,3.217-2.732,4.727
		c-0.67,0.9-1.326,1.602-1.969,2.104c-1.393-0.291-2.838-0.437-4.338-0.437c-5.008,0-9.359,1.562-13.055,4.687
		c-0.43,0.344-0.857,0.728-1.287,1.151c-2.838,2.832-4.646,6.09-5.422,9.77c-0.322,1.404-0.482,2.873-0.482,4.409
		c0.107,3.574,1.271,6.95,3.494,10.127c0.268,0.291,0.537,0.568,0.805,0.834c0.695,0.688,1.418,1.311,2.168,1.866
		c3.16,2.436,6.789,3.76,10.887,3.972c5.035-0.265,9.373-2.211,13.016-5.838c0.105-0.106,0.227-0.226,0.359-0.357
		c2.867-2.913,4.635-6.289,5.305-10.128c0.188-1.19,0.281-2.409,0.281-3.654c0-5.029-1.674-9.385-5.021-13.065
		c-0.135-0.159-0.268-0.304-0.402-0.438c0.24-2.435,1.354-5.626,3.334-9.57c2.277-4.501,3.414-7.651,3.414-9.452
		c0-2.171-0.682-4.024-2.047-5.561c-1.072-1.19-2.691-2.329-4.863-3.414C1211.629,36.184,1208.911,35.906,1206.26,36.516
		 M1220.602,54.307c-0.27,0.848-0.576,1.694-0.926,2.543c-1.527,3.732-2.357,6.446-2.49,8.141c-0.027,0.079-0.041,0.159-0.041,0.238
		c3.617,3.785,5.424,8.326,5.424,13.621c0,0.821-0.041,1.63-0.121,2.424c-0.508,4.342-2.33,8.128-5.463,11.358l6.387,8.3h2.611
		c10.82,0.133,18.975,2.158,24.465,6.076c3.133,2.225,5.141,4.779,6.025,7.665c1.473,6.646,0.615,13.503-2.572,20.572
		c-1.5,3.813-3.547,7.785-6.145,11.914c-4.66,7.361-10.219,13.94-16.672,19.739c-1.393,1.323-2.998,2.739-4.82,4.25
		c-4.313,3.468-9.842,7.32-16.59,11.556c-6.855,4.289-13.564,8.089-20.125,11.399c-3.188,1.588-6.334,3.069-9.441,4.447l-0.48,0.199
		c-4.18,1.826-8.344,3.361-12.494,4.606c-5.223,1.614-9.734,2.925-13.537,3.932c-9.855,2.594-17.836,3.892-23.941,3.892
		c-3.695,0-5.545-1.085-5.545-3.257c0-0.476,0.094-0.939,0.281-1.39c0.992-1.96,2.813-3.8,5.463-5.521
		c1.662-1.086,6.334-3.416,14.021-6.989c0.375-0.186,0.762-0.357,1.164-0.517c5.838-2.807,10.123-5.454,12.855-7.942
		c3.855-3.495,5.971-7.533,6.346-12.113c0.027-0.504,0.041-1.006,0.041-1.509c0-2.251-0.256-4.131-0.764-5.641
		c-0.24-0.688-0.871-2.051-1.889-4.09l-0.16-0.317c-1.258-2.198-2.41-4.62-3.455-7.269c-0.668-1.747-1.137-3.084-1.406-4.011
		c-0.213-0.741-0.402-1.43-0.561-2.066c-0.402-1.641-0.604-3.057-0.604-4.249c0-4.871,2.342-9.426,7.029-13.661
		c3.938-3.573,10.553-7.731,19.844-12.471c-0.24-2.594-1.299-5.759-3.172-9.492c-1.473-2.991-3.133-5.454-4.982-7.387
		c-1.5-1.588-3.105-2.819-4.82-3.693c-1.9-0.768-3.602-1.47-5.102-2.104c-2.893-1.218-5.074-2.343-6.547-3.376
		c-0.537-0.37-1.072-0.834-1.607-1.391c-0.455-0.476-0.896-1.006-1.326-1.588c-0.83-1.111-1.459-2.316-1.889-3.614
		c-0.213-0.688-0.414-1.416-0.602-2.185c-0.777-3.256-1.164-6.791-1.164-10.603c0-8.103,2.303-17.581,6.908-28.437
		c2.303-5.137,3.883-8.751,4.74-10.842c1.365-3.31,2.09-5.799,2.17-7.467c0.563-3.495-1.059-5.454-4.861-5.877
		c-4.713,0.291-8.824,3.296-12.332,9.015c-1.66,2.7-2.986,5.732-3.977,9.094c-0.402,1.404-0.75,2.873-1.045,4.409
		c-0.723,3.76-1.084,7.863-1.084,12.312c0,0.899,0.041,1.84,0.119,2.819c0.27,3.549,1.059,7.625,2.371,12.232
		c1.66,5.878,2.49,10.498,2.49,13.861c0,0.926-0.133,1.853-0.402,2.779c-0.053,0.186-0.105,0.37-0.16,0.556
		c-0.99,2.251-2.986,3.641-5.984,4.171c-2.063,0.344-4.713,0.516-7.955,0.516c-2.971,0-5.182-0.132-6.627-0.396
		c-0.135-0.027-0.281-0.054-0.443-0.08c-2.65-0.503-4.846-1.603-6.588-3.296c-0.48-0.53-0.963-1.086-1.445-1.668
		c-0.938-1.14-1.809-2.37-2.611-3.694c-0.053-0.079-0.107-0.158-0.16-0.238l-8.436-15.965c-0.027-0.053-0.055-0.105-0.08-0.159
		c-0.59-1.165-1.125-2.33-1.607-3.495c-1.875-4.58-2.813-8.869-2.813-12.866c0-1.245,0.107-2.701,0.322-4.369
		c0.268-1.934,0.668-4.17,1.205-6.712c0.293-1.324,0.547-2.463,0.764-3.415c0.48-2.33,0.734-3.628,0.762-3.893
		c0.055-0.424,0.082-0.82,0.082-1.191c0.053-2.409-0.83-3.746-2.652-4.012c-2.92,0.239-5.182,2.517-6.789,6.831
		c-1.258,3.39-1.889,7.149-1.889,11.279c0,2.277,0.443,4.805,1.326,7.585c0.857,2.675,2.117,5.587,3.775,8.738
		c1.152,2.171,3.215,5.612,6.188,10.326c0.348,0.556,0.709,1.125,1.084,1.707c1.205,1.905,2.545,3.997,4.018,6.274l1.525,2.621
		c0.857,1.43,1.5,2.979,1.93,4.647c0.588,1.905,0.883,3.349,0.883,4.328c0,1.747-0.51,3.283-1.525,4.607
		c-0.455,0.582-1.58,1.654-3.375,3.217c-3.268,2.833-4.9,6.235-4.9,10.206c0,0.609,0.133,1.392,0.402,2.343
		c0.133,0.478,0.293,0.993,0.48,1.55c0.455,1.298,1.1,2.846,1.93,4.647c1.016,2.249,2.33,4.884,3.936,7.902
		c0.67,1.244,1.807,3.084,3.414,5.521c0.75,1.376,1.232,2.793,1.447,4.25c0.025,0.053,0.039,0.131,0.039,0.237
		c0.268,1.748,0.281,3.509,0.041,5.282v0.238c-0.375,2.595-1.326,4.633-2.854,6.116c-1.311,1.244-2.703,1.866-4.176,1.866
		c-1.18,0-2.25-0.476-3.215-1.429c-1.07-1.06-1.607-2.356-1.607-3.893v-0.198c0.055-1.431,0.67-2.728,1.85-3.893
		c1.23-1.218,1.848-2.369,1.848-3.455c0-0.476-0.082-0.914-0.242-1.311c-0.775-1.907-1.701-3.694-2.771-5.361
		c-1.848-3.098-3.334-5.587-4.459-7.467c-0.08-0.158-0.16-0.304-0.24-0.437c-2.063-3.573-3.656-6.924-4.781-10.048
		c-0.24-0.636-0.441-1.258-0.602-1.867c-2.143-0.979-4.098-2.343-5.865-4.09c-2.813-2.779-4.619-5.971-5.424-9.571
		c-1.018-0.477-1.955-1.139-2.813-1.986c-1.9-1.879-2.852-4.156-2.852-6.831c0-2.674,0.951-4.964,2.852-6.87
		c1.85-1.8,4.045-2.74,6.588-2.82c0.938-1.165,2.184-2.184,3.736-3.058c-0.08-1.535-0.842-4.249-2.289-8.141
		c-0.91-2.41-1.539-4.541-1.889-6.395c-0.268-1.298-0.402-2.463-0.402-3.495c0-3.521,1.836-6.394,5.504-8.618
		c-0.508-2.488-0.762-4.885-0.762-7.188c0-8.287,2.945-13.874,8.836-16.76c1.5-0.608,2.947-0.556,4.34,0.16
		c0.883,0.661,1.5,1.509,1.848,2.541c0.268,0.874,0.4,2.117,0.4,3.732c0,1.907-0.48,5.071-1.445,9.492
		c-0.215,1.033-0.416,2.026-0.602,2.979c0.508-0.158,1.043-0.305,1.605-0.437c5.088-1.324,11.623-2.25,19.604-2.78
		c4.445-0.317,9.99-0.635,16.631-0.953c0.75-3.125,1.781-6.13,3.092-9.015c3.83-8.473,8.945-12.709,15.348-12.709
		c0.268,0,0.723,0.053,1.365,0.159c2.65,0.767,4.324,2.567,5.021,5.4c0.186,0.688,0.281,1.563,0.281,2.621
		c0,1.563-0.684,3.998-2.049,7.309c-0.563,1.402-1.447,3.455-2.652,6.154c2.84-0.344,9.588-1.402,20.246-3.177
		c11.598-1.932,18.492-2.898,20.688-2.898c6.375,0,11.328,1.482,14.863,4.447c2.357,1.959,3.738,4.197,4.139,6.712
		C1222.756,46.906,1222.153,50.573,1220.602,54.307 M1207.184,70.629c2.705,0,5.008,0.941,6.908,2.82
		c1.928,1.907,2.893,4.197,2.893,6.871c0,1.324-0.227,2.555-0.682,3.692c-0.484,1.14-1.219,2.186-2.211,3.139
		c-1.9,1.905-4.203,2.858-6.908,2.858c-1.26,0-2.424-0.197-3.496-0.595c-1.258-0.477-2.41-1.231-3.453-2.264
		c-1.902-1.88-2.852-4.157-2.852-6.831s0.949-4.964,2.852-6.871C1202.161,71.57,1204.479,70.629,1207.184,70.629 M1249.282,114.276
		v-0.199c-0.08-2.859-1.795-5.123-5.141-6.791c-3.133-1.588-7.016-2.383-11.65-2.383c-5.088,0-11.93,1.139-20.525,3.416
		c-8.68,2.303-16.178,4.991-22.496,8.061c-0.055,0.027-0.107,0.055-0.162,0.08l-4.941,2.582
		c-7.873,4.236-13.523,7.731-16.951,10.485c-6.158,4.924-9.238,9.849-9.238,14.772c0,0.953,0.105,2.013,0.32,3.178
		c0.563,2.938,1.795,6.54,3.695,10.802c1.875,4.184,3.094,7.942,3.656,11.28c0.08,0.449,0.146,0.887,0.201,1.31v0.676v0.517
		c-0.135,5.771-2.225,10.814-6.268,15.131c-2.678,2.833-6.387,5.507-11.127,8.021c-0.83,0.451-1.701,0.888-2.611,1.312
		c-6.668,2.806-11.248,4.792-13.738,5.957c-0.883,0.424-1.674,0.835-2.369,1.231c-1.045,0.608-1.902,1.311-2.572,2.104
		c-0.4,0.424-0.602,0.848-0.602,1.271c0,0.82,0.83,1.23,2.49,1.23c1.848,0,6.48-0.979,13.898-2.938
		c3.803-0.979,7.873-2.092,12.213-3.337c2.438-0.661,5.703-1.521,9.803-2.581c2.971-0.9,5.637-1.985,7.992-3.257
		c0.242-0.158,0.496-0.304,0.764-0.436c3.643-2.305,6.359-5.217,8.154-8.737c0.615-1.165,1.969-4.185,4.059-9.055
		c2.463-5.773,4.471-9.903,6.023-12.392c2.412-3.893,5.545-7.282,9.4-10.168c1.178-0.899,8.865-6.103,23.059-15.607
		c8.623-5.798,14.246-9.968,16.871-12.511c0.055-0.053,0.107-0.105,0.16-0.157c1.875-1.748,3.549-3.602,5.023-5.561
		c0.936-1.271,1.633-2.635,2.088-4.091c0.242-0.742,0.4-1.469,0.482-2.185C1249.268,114.964,1249.282,114.62,1249.282,114.276
		 M1255.469,150.06c-1.662-1.06-2.492-2.767-2.492-5.123c0-2.675,0.844-5.469,2.531-8.381c1.58-2.728,3.51-4.633,5.785-5.719
		c0.135-3.071,1.299-5.626,3.494-7.665c-0.348-0.768-0.654-1.629-0.924-2.581c-0.455-1.748-0.682-3.509-0.682-5.282
		c0-4.024,1.994-7.32,5.984-9.889c2.893-1.854,6.533-3.164,10.926-3.932c0.322-0.053,0.645-0.093,0.965-0.119
		c1.152-0.133,2.223-0.093,3.215,0.119c1.07,0.185,1.887,0.688,2.449,1.509c0.322,0.503,0.521,1.085,0.602,1.747
		c0.027,1.43-0.387,2.701-1.244,3.813c-0.83,1.112-2.09,2.237-3.775,3.377c-1.982,1.35-3.375,2.687-4.178,4.011
		c0.32-0.054,0.75-0.106,1.285-0.159c1.418-0.159,2.303-0.238,2.652-0.238c2.49,0,4.43,0.582,5.824,1.747
		c1.23,1.061,2.396,2.966,3.494,5.719c0.615,1.59,1.125,3.071,1.527,4.449c0.48,2.117,0.748,4.09,0.803,5.917
		c0.107,1.404-0.014,2.607-0.361,3.614c-0.16,0.291-0.348,0.57-0.563,0.833c-0.697,0.742-1.5,1.139-2.41,1.192
		c-0.107,0.025-0.229,0.04-0.361,0.04c-1.607,0-3.053-1.06-4.338-3.178c-1.26-2.118-2.584-3.177-3.979-3.177
		c-1.553,0-3.146,0.238-4.779,0.715c-1.34,0.423-2.518,0.952-3.535,1.589c2.143,1.959,3.734,3.693,4.781,5.201
		c1.846,2.701,2.771,5.68,2.771,8.937c0,3.282-0.965,6.857-2.893,10.723c-2.438,4.872-5.465,7.308-9.08,7.308
		c-1.178,0-2.008-0.317-2.49-0.954c-0.535-0.714-0.803-2.012-0.803-3.891c0.295-3.495,0.334-5.746,0.121-6.752
		c-0.295-1.456-1.729-2.568-4.299-3.336C1258.2,151.237,1256.192,150.509,1255.469,150.06 M1284.352,104.546
		c-0.75-0.45-1.928-0.675-3.535-0.675c-2.33,0-5.451,1.138-9.361,3.415c-4.658,2.701-6.988,5.613-6.988,8.738
		c0,0.873,0.16,1.999,0.48,3.375c0.189,0.741,0.455,1.708,0.805,2.899c2.893-2.939,6.268-4.912,10.123-5.919v-0.079
		c0-1.8,1.58-3.812,4.74-6.036c1.82-1.297,3.119-2.29,3.896-2.979C1285.557,106.413,1285.504,105.499,1284.352,104.546
		 M1255.831,147.755c0.91,0.558,2.691,0.914,5.344,1.073c1.686,0.08,3.293,0.807,4.818,2.184c1.662,1.482,2.492,3.19,2.492,5.123
		c0,0.848-0.256,2.014-0.764,3.496c-0.51,1.455-0.764,2.488-0.764,3.098v0.039c0.053,0.477,0.322,0.94,0.803,1.391
		c0.482,0.423,0.979,0.636,1.486,0.636h0.201c1.285-0.134,3.281-1.404,5.986-3.813c2.221-2.462,3.494-5.864,3.816-10.206
		c-0.027-2.701-0.738-5.468-2.131-8.302c-1.203-2.488-2.664-4.354-4.377-5.599c-1.74-1.271-3.682-2.158-5.824-2.661
		c-0.645-0.105-1.326-0.16-2.051-0.16c-3.533,0-6.318,1.272-8.354,3.814c-1.555,1.933-2.332,3.945-2.332,6.036
		C1254.182,145.811,1254.733,147.094,1255.831,147.755 M1276.276,130.44c1.902-0.928,3.684-1.391,5.344-1.391
		c2.518,0,4.23,1.443,5.143,4.329c0.48,1.563,0.855,2.556,1.125,2.979c0.48,0.741,1.15,1.178,2.008,1.311
		c1.5-0.159,2.316-1.059,2.449-2.701c-0.24-4.817-1.551-9.146-3.936-12.985c-0.857-1.033-1.607-1.774-2.25-2.226
		c-1.07-0.741-2.609-1.11-4.619-1.11c-3.213,0-6.654,0.833-10.322,2.501c-5.09,2.33-7.902,5.601-8.438,9.81
		c3.348,0.08,6.32,1.047,8.918,2.899C1272.903,132.479,1274.43,131.34,1276.276,130.44 M1157.01,24.441
		c0.75,0.424,0.992,1.482,0.723,3.177c-0.268,1.669-0.977,3.481-2.129,5.441c-1.125,1.933-2.357,3.442-3.695,4.527
		c-1.34,1.06-2.383,1.377-3.133,0.953s-0.992-1.483-0.723-3.177c0.268-1.668,0.963-3.469,2.088-5.401
		c1.152-1.96,2.396-3.481,3.736-4.566C1155.217,24.335,1156.26,24.019,1157.01,24.441 M1140.34,52.956
		c0-3.574,0.279-7.029,0.844-10.365c-6.535-0.053-11.959,0.026-16.27,0.238c-8.436,0.397-15.52,1.575-21.252,3.535
		c-0.186,1.694-0.279,3.283-0.279,4.766c0,3.997,0.709,7.863,2.129,11.597c1.07,2.833,2.504,5.44,4.297,7.823
		c3.697-2.938,8.102-5.48,13.217-7.625c5.49-2.33,11.342-3.998,17.555-5.004c-0.08-0.371-0.135-0.688-0.16-0.953
		C1140.366,56.385,1140.34,55.048,1140.34,52.956 M1100.61,35.323c-0.105,0.688-0.268,1.39-0.48,2.104
		c-0.43,1.668-1.045,3.045-1.85,4.132c-0.775,1.058-1.484,1.494-2.129,1.31c-0.641-0.159-1.031-0.9-1.164-2.224
		c-0.16-1.299,0-2.78,0.482-4.448c0.455-1.694,1.072-3.084,1.848-4.17c0.777-1.06,1.486-1.509,2.129-1.351
		c0.322,0.105,0.576,0.345,0.764,0.714c0.215,0.371,0.361,0.888,0.441,1.55C1100.704,33.655,1100.692,34.449,1100.61,35.323
		 M1092.417,50.813c-1.045,0.662-1.74,1.271-2.09,1.826c-0.508,0.795-0.764,1.985-0.764,3.574c0,2.833,1.34,6.063,4.018,9.691
		c1.607,2.171,2.732,4.195,3.375,6.076c1.633-0.478,3.361-0.741,5.182-0.794c-4.123-6.382-7.111-12.353-8.957-17.912
		C1092.885,52.453,1092.631,51.633,1092.417,50.813 M1084.301,83.141c-0.643,1.455-1.084,3.005-1.326,4.646
		c-0.188,1.721-0.119,3.35,0.201,4.885c0.51,1.934,1.313,3.879,2.41,5.838c2.09,3.681,4.74,6.156,7.955,7.428
		c-0.402-1.881-0.604-3.681-0.604-5.401c0-2.119,0.148-4.131,0.443-6.037c0.588-3.707,1.738-7.056,3.453-10.048
		c0.135-0.238,0.268-0.476,0.402-0.715c1.205-1.933,3.695-4.831,7.473-8.697c-0.189-0.291-0.375-0.569-0.564-0.834
		c-0.482-0.133-0.91-0.212-1.285-0.238c-0.24-0.026-0.951-0.04-2.129-0.04c-1.152,0-2.236,0.066-3.254,0.199
		c-2.383,0.264-4.459,0.873-6.225,1.826c-1.422,0.768-2.801,1.814-4.139,3.138C1085.961,80.386,1085.024,81.736,1084.301,83.141
		 M1091.854,125.833c-0.83-0.979-1.688-1.694-2.572-2.144c-1.445-0.583-2.879-0.583-4.297,0c-5.545,2.515-9.602,6.777-12.172,12.788
		c-0.162,0.344-0.309,0.688-0.443,1.031c-2.355,6.012-3.533,14.312-3.533,24.902c0,2.462,0.307,5.056,0.924,7.783
		c0.24,1.086,0.508,2.064,0.803,2.939c0.348,1.085,0.736,2.013,1.164,2.78c0.75,1.455,1.701,2.832,2.854,4.129
		c0.348,0.398,0.682,0.742,1.004,1.034c1.07,1.005,2.01,1.508,2.813,1.508c0.563,0,1.031-0.132,1.406-0.396
		c0.455-0.397,0.709-0.9,0.762-1.51c0-0.369-0.053-0.715-0.16-1.032c-0.08-0.238-0.188-0.477-0.32-0.716
		c-0.51-1.138-1.02-2.276-1.527-3.413c-1.285-2.914-1.996-5.998-2.129-9.255c-0.027-0.396-0.039-0.809-0.039-1.231
		c0-2.25,0.922-4.514,2.77-6.79c0.215-0.267,2.264-2.344,6.146-6.236c5.947-6.011,8.918-12.682,8.918-20.016
		c0-1.934-0.682-3.839-2.047-5.719C1092.067,126.111,1091.961,125.965,1091.854,125.833 M1126.239,164.595
		c1.607-1.985,3.27-3.786,4.982-5.401c3.643-3.415,7.551-5.957,11.729-7.625c3.055-1.297,5.691-1.563,7.914-0.794
		c0.725,0.237,1.406,0.596,2.049,1.071c0.295,0.266,0.604,0.557,0.926,0.873c1.713,1.802,2.568,3.682,2.568,5.641
		c0,2.674-0.789,5.097-2.369,7.268c-1.955,2.648-5.021,4.7-9.199,6.155c-3.938,1.218-6.668,2.12-8.193,2.701
		c-2.465,0.954-4.607,2.277-6.428,3.972c-0.455,0.423-2.41,2.608-5.865,6.553c-1.768,1.985-3.348,2.979-4.74,2.979
		c-0.563,0-1.045-0.318-1.445-0.952c-0.43-0.689-0.645-1.563-0.645-2.622C1117.522,178.455,1120.428,171.849,1126.239,164.595
		 M1084.743,171.465c0-0.899-0.32-2.25-0.963-4.051c-0.643-1.8-0.965-3.151-0.965-4.051c0-2.038,0.682-3.561,2.049-4.567
		c0.322-0.237,0.816-0.517,1.486-0.834c1.473-0.53,2.813-0.622,4.018-0.277c0.777,0.396,1.352,1.046,1.727,1.946
		c0.242,0.848,0.361,1.933,0.361,3.256c0,2.145-0.535,5.004-1.605,8.578c-0.723,2.357-1.527,4.157-2.41,5.401
		c-1.018,1.377-2.143,2.064-3.375,2.064c-0.482,0-0.803-0.157-0.965-0.476v-0.04c-0.107-0.212-0.16-0.622-0.16-1.23
		c0-0.45,0.133-1.378,0.402-2.78C1084.61,173.027,1084.743,172.048,1084.743,171.465 M1094.946,124.086
		c0.697,1.429,1.045,3.031,1.045,4.805c0,8.977-2.918,17.064-8.756,24.267c-1.447,1.8-3.455,4.091-6.025,6.871
		c-1.152,1.376-1.93,2.634-2.33,3.772c-0.27,0.635-0.402,1.23-0.402,1.787c0,2.329,0.75,5.348,2.25,9.055
		c0.695,1.722,1.232,3.178,1.607,4.368c0.428,1.377,0.641,2.409,0.641,3.098c0,0.98-0.266,1.774-0.803,2.383
		c-0.563,0.636-1.338,0.954-2.33,0.954c-2.195,0-4.365-1.284-6.508-3.854c-0.643-0.768-1.285-1.653-1.928-2.661
		c-0.83-1.271-1.541-2.594-2.129-3.971c-1.795-4.104-2.691-8.764-2.691-13.979c0-8.921,1.486-16.773,4.459-23.552
		c0.695-1.614,1.486-3.177,2.371-4.686c3.561-6.037,7.898-10.166,13.014-12.391c2.063-0.821,3.951-0.755,5.664,0.197
		c0.643,0.451,1.246,1.061,1.809,1.828C1094.303,122.907,1094.651,123.477,1094.946,124.086"/>
	<path fill-rule="evenodd" clip-rule="evenodd" fill="#E75113" d="M1207.133,38.183c-3.045-2.244-7.398-3.366-13.061-3.366
		c-2.645,0-8.121,0.842-16.428,2.523c-9.08,1.87-14.877,2.979-17.387,3.326c-2.27,5.208-3.807,9.668-4.609,13.381h0.521
		c7.213,0.401,13.863,1.362,19.953,2.886c5.395,1.335,9.67,2.965,12.822,4.888c3.684-3.152,8.023-4.729,13.02-4.729
		c1.496,0,2.938,0.147,4.326,0.441c1.336-0.775,2.523-1.883,3.566-3.326c1.389-1.95,2.082-3.818,2.082-5.608
		C1211.94,44.004,1210.338,40.532,1207.133,38.183 M1205.891,34.576c2.297,1.148,4.152,2.751,5.57,4.808
		c1.602,2.323,2.404,4.994,2.404,8.014c0,2.163-0.428,4.313-1.283,6.45c-0.668,1.655-1.576,3.244-2.725,4.768
		c-0.668,0.908-1.322,1.616-1.963,2.123c-1.389-0.294-2.832-0.441-4.328-0.441c-4.994,0-9.334,1.576-13.02,4.729
		c-0.428,0.347-0.855,0.733-1.283,1.162c-2.83,2.857-4.633,6.143-5.408,9.855c-0.32,1.415-0.48,2.898-0.48,4.447
		c0.105,3.605,1.268,7.011,3.484,10.216c0.268,0.294,0.535,0.575,0.803,0.842c0.693,0.694,1.416,1.322,2.164,1.884
		c3.15,2.457,6.77,3.793,10.855,4.006c5.023-0.268,9.35-2.23,12.982-5.89c0.105-0.106,0.227-0.227,0.359-0.36
		c2.859-2.938,4.621-6.344,5.289-10.217c0.188-1.201,0.281-2.431,0.281-3.686c0-5.075-1.67-9.469-5.008-13.181
		c-0.135-0.161-0.268-0.309-0.4-0.441c0.238-2.457,1.348-5.676,3.324-9.656c2.271-4.541,3.406-7.719,3.406-9.534
		c0-2.19-0.684-4.061-2.043-5.609c-1.07-1.202-2.686-2.352-4.85-3.446C1211.247,34.242,1208.536,33.962,1205.891,34.576
		 M1220.196,52.525c-0.268,0.854-0.574,1.709-0.924,2.563c-1.521,3.767-2.35,6.504-2.482,8.214c-0.027,0.079-0.041,0.159-0.041,0.24
		c3.605,3.819,5.41,8.4,5.41,13.742c0,0.828-0.041,1.643-0.121,2.444c-0.508,4.38-2.324,8.198-5.447,11.458l6.369,8.374h2.604
		c10.791,0.133,18.926,2.176,24.4,6.13c3.123,2.243,5.127,4.819,6.01,7.731c1.467,6.704,0.613,13.622-2.564,20.753
		c-1.496,3.848-3.539,7.854-6.131,12.021c-4.646,7.426-10.189,14.063-16.627,19.912c-1.389,1.336-2.99,2.765-4.809,4.288
		c-4.299,3.498-9.814,7.385-16.545,11.658c-6.838,4.326-13.529,8.159-20.072,11.498c-3.18,1.603-6.316,3.099-9.416,4.487
		l-0.48,0.201c-4.166,1.842-8.32,3.391-12.461,4.646c-5.207,1.631-9.709,2.952-13.5,3.969c-9.83,2.615-17.789,3.926-23.879,3.926
		c-3.688,0-5.529-1.095-5.529-3.286c0-0.48,0.094-0.948,0.281-1.403c0.986-1.976,2.803-3.832,5.447-5.567
		c1.656-1.095,6.316-3.446,13.982-7.052c0.375-0.187,0.762-0.36,1.162-0.521c5.824-2.831,10.096-5.502,12.82-8.013
		c3.848-3.525,5.957-7.6,6.33-12.221c0.027-0.508,0.041-1.015,0.041-1.521c0-2.271-0.254-4.168-0.762-5.69
		c-0.24-0.693-0.867-2.068-1.883-4.126l-0.16-0.32c-1.256-2.218-2.404-4.66-3.445-7.332c-0.668-1.763-1.135-3.111-1.402-4.046
		c-0.213-0.747-0.4-1.442-0.561-2.084c-0.4-1.656-0.602-3.085-0.602-4.287c0-4.914,2.338-9.51,7.012-13.781
		c3.926-3.606,10.523-7.8,19.791-12.582c-0.24-2.616-1.295-5.809-3.164-9.574c-1.469-3.019-3.125-5.503-4.969-7.453
		c-1.496-1.602-3.098-2.844-4.807-3.726c-1.896-0.774-3.594-1.482-5.09-2.123c-2.885-1.229-5.061-2.364-6.529-3.406
		c-0.535-0.374-1.068-0.841-1.604-1.401c-0.453-0.481-0.895-1.016-1.32-1.603c-0.828-1.122-1.457-2.338-1.885-3.646
		c-0.213-0.694-0.414-1.429-0.602-2.203c-0.773-3.285-1.16-6.852-1.16-10.697c0-8.173,2.297-17.735,6.891-28.688
		c2.297-5.182,3.873-8.826,4.729-10.937c1.361-3.339,2.082-5.85,2.162-7.532c0.561-3.525-1.055-5.503-4.848-5.93
		c-4.701,0.294-8.801,3.325-12.301,9.094c-1.656,2.726-2.977,5.783-3.965,9.175c-0.402,1.416-0.748,2.898-1.043,4.448
		c-0.721,3.792-1.082,7.934-1.082,12.42c0,0.908,0.041,1.856,0.121,2.844c0.268,3.58,1.055,7.693,2.363,12.341
		c1.656,5.93,2.484,10.591,2.484,13.982c0,0.936-0.133,1.869-0.4,2.806c-0.055,0.186-0.107,0.372-0.16,0.56
		c-0.988,2.271-2.979,3.673-5.969,4.207c-2.059,0.347-4.701,0.521-7.934,0.521c-2.965,0-5.168-0.134-6.611-0.4
		c-0.133-0.026-0.279-0.053-0.439-0.08c-2.645-0.507-4.836-1.616-6.572-3.325c-0.48-0.534-0.961-1.095-1.441-1.683
		c-0.936-1.148-1.803-2.391-2.605-3.727c-0.053-0.08-0.105-0.16-0.16-0.24l-8.412-16.105c-0.027-0.054-0.055-0.107-0.08-0.16
		c-0.588-1.176-1.123-2.351-1.604-3.525c-1.869-4.621-2.803-8.948-2.803-12.981c0-1.256,0.105-2.725,0.318-4.407
		c0.268-1.95,0.668-4.207,1.203-6.771c0.293-1.336,0.547-2.485,0.76-3.446c0.482-2.351,0.736-3.659,0.762-3.926
		c0.055-0.428,0.08-0.828,0.08-1.202c0.055-2.431-0.826-3.78-2.645-4.047c-2.91,0.241-5.168,2.538-6.77,6.891
		c-1.256,3.419-1.883,7.212-1.883,11.379c0,2.297,0.439,4.849,1.32,7.652c0.855,2.698,2.111,5.636,3.768,8.813
		c1.148,2.191,3.205,5.663,6.17,10.418c0.348,0.561,0.707,1.135,1.082,1.723c1.201,1.923,2.537,4.033,4.006,6.33l1.521,2.645
		c0.855,1.442,1.496,3.004,1.924,4.688c0.588,1.923,0.881,3.379,0.881,4.367c0,1.763-0.506,3.312-1.521,4.647
		c-0.455,0.587-1.576,1.669-3.365,3.245c-3.26,2.858-4.889,6.29-4.889,10.297c0,0.614,0.133,1.402,0.4,2.363
		c0.135,0.48,0.295,1.002,0.48,1.563c0.455,1.31,1.096,2.871,1.924,4.688c1.016,2.269,2.324,4.927,3.928,7.972
		c0.666,1.255,1.803,3.111,3.404,5.569c0.748,1.389,1.229,2.817,1.441,4.288c0.027,0.053,0.041,0.133,0.041,0.238
		c0.266,1.765,0.281,3.54,0.041,5.329v0.241c-0.375,2.617-1.324,4.673-2.846,6.17c-1.309,1.255-2.697,1.882-4.166,1.882
		c-1.176,0-2.244-0.479-3.205-1.44c-1.068-1.069-1.604-2.377-1.604-3.927v-0.2c0.055-1.443,0.668-2.751,1.844-3.928
		c1.229-1.228,1.842-2.39,1.842-3.484c0-0.481-0.08-0.922-0.24-1.323c-0.773-1.923-1.695-3.726-2.764-5.408
		c-1.844-3.126-3.326-5.636-4.447-7.532c-0.08-0.159-0.16-0.308-0.24-0.44c-2.057-3.605-3.646-6.984-4.768-10.136
		c-0.24-0.643-0.441-1.271-0.602-1.883c-2.137-0.989-4.086-2.364-5.85-4.128c-2.805-2.804-4.607-6.022-5.408-9.655
		c-1.016-0.481-1.951-1.148-2.805-2.003c-1.896-1.896-2.846-4.194-2.846-6.892s0.949-5.008,2.846-6.931
		c1.844-1.817,4.033-2.765,6.57-2.845c0.936-1.176,2.178-2.203,3.727-3.085c-0.08-1.55-0.842-4.287-2.285-8.214
		c-0.908-2.431-1.535-4.58-1.883-6.449c-0.266-1.31-0.4-2.485-0.4-3.526c0-3.553,1.83-6.451,5.49-8.694
		c-0.508-2.511-0.762-4.928-0.762-7.252c0-8.359,2.938-13.996,8.814-16.907c1.496-0.614,2.938-0.561,4.326,0.16
		c0.881,0.668,1.496,1.522,1.844,2.564c0.268,0.881,0.4,2.137,0.4,3.766c0,1.923-0.48,5.115-1.443,9.576
		c-0.213,1.041-0.414,2.043-0.6,3.004c0.508-0.16,1.041-0.307,1.602-0.439c5.074-1.336,11.594-2.271,19.553-2.806
		c4.434-0.319,9.963-0.641,16.586-0.961c0.748-3.151,1.775-6.184,3.086-9.095c3.818-8.547,8.92-12.821,15.305-12.821
		c0.266,0,0.721,0.055,1.361,0.161c2.645,0.774,4.314,2.59,5.008,5.448c0.188,0.695,0.281,1.576,0.281,2.644
		c0,1.576-0.682,4.034-2.043,7.372c-0.563,1.416-1.443,3.486-2.645,6.21c2.83-0.347,9.563-1.415,20.193-3.205
		c11.564-1.948,18.441-2.924,20.633-2.924c6.357,0,11.297,1.495,14.824,4.487c2.35,1.976,3.727,4.233,4.127,6.771
		C1222.344,45.06,1221.745,48.758,1220.196,52.525 M1206.813,68.991c2.697,0,4.994,0.949,6.891,2.845
		c1.924,1.923,2.887,4.233,2.887,6.932c0,1.336-0.229,2.578-0.682,3.726c-0.482,1.149-1.217,2.204-2.205,3.165
		c-1.896,1.923-4.193,2.885-6.891,2.885c-1.256,0-2.418-0.2-3.486-0.601c-1.254-0.481-2.402-1.242-3.445-2.284
		c-1.896-1.896-2.844-4.193-2.844-6.891c0-2.698,0.947-5.009,2.844-6.932C1201.805,69.94,1204.116,68.991,1206.813,68.991
		 M1248.801,113.023v-0.201c-0.08-2.885-1.791-5.168-5.129-6.852c-3.125-1.602-6.998-2.403-11.619-2.403
		c-5.074,0-11.898,1.148-20.473,3.446c-8.654,2.322-16.133,5.034-22.436,8.132c-0.055,0.026-0.107,0.054-0.162,0.081l-4.928,2.604
		c-7.852,4.274-13.488,7.8-16.906,10.578c-6.143,4.967-9.215,9.936-9.215,14.903c0,0.962,0.107,2.029,0.32,3.206
		c0.561,2.964,1.789,6.597,3.686,10.896c1.869,4.221,3.086,8.013,3.646,11.379c0.08,0.454,0.146,0.896,0.201,1.322v0.681v0.521
		c-0.135,5.822-2.217,10.91-6.25,15.264c-2.672,2.858-6.371,5.556-11.1,8.093c-0.828,0.455-1.695,0.896-2.604,1.322
		c-6.65,2.832-11.219,4.835-13.703,6.01c-0.881,0.428-1.668,0.843-2.363,1.243c-1.041,0.613-1.896,1.322-2.564,2.123
		c-0.4,0.427-0.602,0.855-0.602,1.282c0,0.828,0.828,1.241,2.484,1.241c1.844,0,6.465-0.987,13.863-2.964
		c3.793-0.988,7.854-2.109,12.18-3.365c2.43-0.668,5.689-1.536,9.777-2.605c2.963-0.908,5.621-2.003,7.971-3.285
		c0.242-0.159,0.494-0.307,0.762-0.439c3.633-2.324,6.344-5.263,8.133-8.814c0.615-1.176,1.963-4.221,4.047-9.135
		c2.457-5.824,4.461-9.99,6.01-12.5c2.404-3.927,5.529-7.347,9.375-10.258c1.176-0.907,8.84-6.156,22.998-15.745
		c8.6-5.849,14.209-10.056,16.828-12.621c0.053-0.053,0.105-0.105,0.158-0.159c1.871-1.763,3.539-3.633,5.01-5.608
		c0.934-1.282,1.629-2.658,2.082-4.127c0.24-0.748,0.4-1.482,0.48-2.204C1248.788,113.717,1248.801,113.369,1248.801,113.023
		 M1254.971,149.121c-1.658-1.068-2.484-2.791-2.484-5.168c0-2.698,0.842-5.516,2.523-8.454c1.576-2.752,3.5-4.674,5.77-5.769
		c0.135-3.1,1.295-5.676,3.486-7.733c-0.348-0.774-0.654-1.643-0.922-2.604c-0.453-1.764-0.68-3.539-0.68-5.329
		c0-4.061,1.988-7.385,5.969-9.977c2.883-1.87,6.516-3.191,10.896-3.966c0.32-0.054,0.643-0.094,0.963-0.121
		c1.148-0.133,2.217-0.093,3.205,0.121c1.066,0.188,1.883,0.694,2.443,1.522c0.32,0.507,0.521,1.095,0.602,1.763
		c0.025,1.442-0.389,2.724-1.242,3.846c-0.828,1.122-2.084,2.257-3.768,3.406c-1.977,1.362-3.363,2.71-4.166,4.047
		c0.322-0.054,0.748-0.106,1.283-0.162c1.414-0.159,2.297-0.238,2.645-0.238c2.482,0,4.42,0.587,5.809,1.762
		c1.229,1.068,2.391,2.992,3.486,5.77c0.613,1.603,1.121,3.099,1.521,4.487c0.48,2.137,0.748,4.127,0.803,5.97
		c0.105,1.416-0.016,2.63-0.361,3.646c-0.16,0.293-0.348,0.574-0.563,0.84c-0.693,0.749-1.494,1.149-2.402,1.202
		c-0.107,0.026-0.227,0.041-0.361,0.041c-1.602,0-3.045-1.069-4.326-3.205c-1.256-2.137-2.578-3.205-3.967-3.205
		c-1.549,0-3.139,0.24-4.768,0.721c-1.336,0.427-2.512,0.961-3.525,1.604c2.137,1.976,3.725,3.725,4.768,5.247
		c1.842,2.725,2.764,5.729,2.764,9.015c0,3.312-0.961,6.918-2.883,10.817c-2.432,4.915-5.449,7.373-9.057,7.373
		c-1.176,0-2.004-0.321-2.482-0.963c-0.535-0.721-0.803-2.029-0.803-3.926c0.293-3.524,0.334-5.796,0.121-6.811
		c-0.295-1.47-1.723-2.591-4.287-3.366C1257.696,150.31,1255.692,149.575,1254.971,149.121 M1283.778,103.207
		c-0.748-0.455-1.924-0.682-3.525-0.682c-2.324,0-5.438,1.148-9.336,3.445c-4.646,2.726-6.971,5.663-6.971,8.815
		c0,0.881,0.158,2.016,0.48,3.405c0.188,0.748,0.453,1.723,0.801,2.925c2.885-2.966,6.25-4.955,10.096-5.971v-0.079
		c0-1.817,1.576-3.846,4.729-6.09c1.816-1.31,3.111-2.311,3.885-3.006C1284.979,105.09,1284.926,104.168,1283.778,103.207
		 M1255.333,146.797c0.906,0.563,2.684,0.921,5.328,1.082c1.682,0.08,3.285,0.814,4.807,2.203c1.656,1.496,2.484,3.219,2.484,5.169
		c0,0.854-0.252,2.03-0.762,3.526c-0.508,1.468-0.762,2.51-0.762,3.125v0.039c0.055,0.48,0.322,0.949,0.803,1.402
		c0.48,0.428,0.975,0.642,1.482,0.642h0.199c1.283-0.134,3.273-1.416,5.971-3.846c2.217-2.484,3.486-5.916,3.807-10.298
		c-0.027-2.725-0.736-5.515-2.125-8.374c-1.201-2.511-2.656-4.393-4.365-5.647c-1.738-1.282-3.674-2.177-5.811-2.685
		c-0.641-0.107-1.322-0.161-2.043-0.161c-3.525,0-6.305,1.282-8.334,3.847c-1.549,1.95-2.324,3.979-2.324,6.09
		C1253.688,144.834,1254.235,146.13,1255.333,146.797 M1275.723,129.329c1.898-0.936,3.674-1.402,5.33-1.402
		c2.51,0,4.219,1.456,5.129,4.367c0.48,1.576,0.854,2.577,1.121,3.004c0.48,0.748,1.148,1.189,2.004,1.323
		c1.494-0.161,2.311-1.069,2.443-2.725c-0.24-4.861-1.549-9.229-3.926-13.102c-0.855-1.042-1.604-1.789-2.244-2.244
		c-1.068-0.746-2.605-1.12-4.607-1.12c-3.205,0-6.637,0.841-10.297,2.522c-5.076,2.352-7.879,5.65-8.414,9.897
		c3.338,0.08,6.303,1.055,8.895,2.924C1272.358,131.386,1273.881,130.237,1275.723,129.329 M1156.772,22.396
		c0.748,0.427,0.988,1.496,0.723,3.205c-0.27,1.683-0.977,3.512-2.125,5.488c-1.121,1.95-2.352,3.473-3.686,4.568
		c-1.336,1.068-2.377,1.388-3.125,0.961s-0.988-1.496-0.721-3.205c0.266-1.683,0.961-3.499,2.082-5.449
		c1.15-1.977,2.391-3.512,3.727-4.606C1154.983,22.289,1156.024,21.969,1156.772,22.396 M1140.145,51.162
		c0-3.604,0.281-7.091,0.842-10.456c-6.518-0.054-11.926,0.026-16.227,0.24c-8.414,0.399-15.479,1.589-21.195,3.565
		c-0.186,1.709-0.279,3.313-0.279,4.809c0,4.033,0.707,7.932,2.123,11.699c1.068,2.856,2.498,5.487,4.287,7.892
		c3.686-2.965,8.08-5.529,13.182-7.692c5.475-2.351,11.311-4.032,17.508-5.049c-0.08-0.373-0.133-0.693-0.16-0.961
		C1140.172,54.621,1140.145,53.272,1140.145,51.162 M1100.52,33.374c-0.105,0.694-0.266,1.402-0.48,2.123
		c-0.426,1.684-1.041,3.072-1.842,4.167c-0.775,1.068-1.482,1.509-2.123,1.322c-0.643-0.16-1.029-0.908-1.162-2.244
		c-0.16-1.309,0-2.804,0.48-4.487c0.453-1.709,1.068-3.11,1.842-4.206c0.775-1.068,1.482-1.522,2.123-1.362
		c0.322,0.106,0.576,0.347,0.764,0.721c0.213,0.374,0.359,0.896,0.439,1.563C1100.616,31.691,1100.602,32.492,1100.52,33.374
		 M1092.348,48.999c-1.043,0.668-1.736,1.282-2.084,1.843c-0.508,0.802-0.76,2.004-0.76,3.606c0,2.858,1.334,6.116,4.006,9.776
		c1.604,2.189,2.723,4.232,3.365,6.13c1.629-0.481,3.352-0.748,5.168-0.802c-4.113-6.438-7.092-12.461-8.936-18.069
		C1092.815,50.655,1092.561,49.827,1092.348,48.999 M1084.254,81.612c-0.641,1.469-1.082,3.031-1.322,4.687
		c-0.186,1.737-0.119,3.379,0.201,4.929c0.508,1.949,1.309,3.913,2.404,5.89c2.082,3.712,4.727,6.21,7.932,7.492
		c-0.4-1.897-0.6-3.713-0.6-5.449c0-2.137,0.146-4.167,0.439-6.09c0.588-3.739,1.736-7.118,3.445-10.136
		c0.135-0.241,0.268-0.481,0.402-0.722c1.201-1.949,3.686-4.875,7.451-8.773c-0.188-0.294-0.375-0.575-0.561-0.842
		c-0.482-0.134-0.908-0.215-1.283-0.24c-0.24-0.027-0.947-0.04-2.123-0.04c-1.148,0-2.23,0.065-3.246,0.2
		c-2.377,0.267-4.445,0.881-6.209,1.843c-1.416,0.774-2.791,1.83-4.127,3.165C1085.911,78.834,1084.975,80.196,1084.254,81.612
		 M1091.788,124.682c-0.828-0.987-1.684-1.709-2.564-2.163c-1.441-0.588-2.871-0.588-4.287,0c-5.529,2.537-9.576,6.838-12.141,12.9
		c-0.16,0.348-0.307,0.695-0.439,1.041c-2.352,6.064-3.525,14.438-3.525,25.122c0,2.483,0.307,5.102,0.922,7.852
		c0.24,1.096,0.506,2.084,0.801,2.966c0.346,1.095,0.734,2.03,1.162,2.805c0.748,1.468,1.695,2.857,2.844,4.166
		c0.348,0.4,0.682,0.748,1.002,1.042c1.068,1.014,2.002,1.522,2.805,1.522c0.561,0,1.027-0.135,1.402-0.401
		c0.453-0.4,0.707-0.908,0.762-1.522c0-0.374-0.055-0.721-0.16-1.042c-0.08-0.239-0.188-0.479-0.322-0.722
		c-0.506-1.146-1.014-2.296-1.521-3.444c-1.283-2.938-1.99-6.051-2.125-9.336c-0.025-0.399-0.039-0.814-0.039-1.241
		c0-2.27,0.922-4.555,2.766-6.851c0.213-0.268,2.256-2.365,6.129-6.291c5.93-6.063,8.895-12.794,8.895-20.192
		c0-1.95-0.682-3.872-2.043-5.769C1092,124.961,1091.893,124.815,1091.788,124.682 M1126.083,163.785
		c1.602-2.003,3.258-3.82,4.969-5.449c3.631-3.445,7.531-6.01,11.697-7.692c3.045-1.309,5.676-1.576,7.893-0.802
		c0.723,0.24,1.402,0.602,2.045,1.082c0.293,0.268,0.602,0.562,0.92,0.882c1.711,1.816,2.564,3.713,2.564,5.688
		c0,2.698-0.787,5.142-2.363,7.332c-1.951,2.671-5.008,4.742-9.176,6.21c-3.926,1.229-6.65,2.138-8.172,2.725
		c-2.457,0.962-4.594,2.298-6.41,4.007c-0.455,0.427-2.404,2.631-5.85,6.61c-1.764,2.003-3.34,3.005-4.729,3.005
		c-0.561,0-1.041-0.32-1.441-0.961c-0.428-0.694-0.643-1.576-0.643-2.645C1117.387,177.768,1120.288,171.104,1126.083,163.785
		 M1084.696,170.716c0-0.908-0.32-2.27-0.963-4.087c-0.641-1.815-0.961-3.179-0.961-4.087c0-2.056,0.682-3.591,2.043-4.606
		c0.32-0.24,0.814-0.521,1.482-0.842c1.469-0.534,2.805-0.628,4.008-0.28c0.775,0.399,1.348,1.055,1.723,1.964
		c0.24,0.854,0.359,1.949,0.359,3.285c0,2.163-0.533,5.048-1.602,8.653c-0.723,2.377-1.523,4.193-2.404,5.448
		c-1.014,1.389-2.137,2.083-3.365,2.083c-0.48,0-0.801-0.159-0.963-0.479v-0.04c-0.105-0.214-0.16-0.627-0.16-1.242
		c0-0.454,0.135-1.39,0.402-2.804C1084.561,172.292,1084.696,171.303,1084.696,170.716 M1094.872,122.919
		c0.693,1.441,1.043,3.059,1.043,4.848c0,9.055-2.912,17.215-8.734,24.479c-1.443,1.816-3.447,4.127-6.01,6.932
		c-1.15,1.389-1.924,2.657-2.324,3.807c-0.268,0.64-0.4,1.241-0.4,1.803c0,2.35,0.748,5.395,2.242,9.134
		c0.695,1.736,1.23,3.205,1.604,4.407c0.428,1.389,0.641,2.431,0.641,3.125c0,0.989-0.266,1.79-0.801,2.404
		c-0.561,0.641-1.336,0.962-2.324,0.962c-2.189,0-4.354-1.296-6.49-3.887c-0.641-0.774-1.281-1.669-1.924-2.686
		c-0.828-1.281-1.535-2.616-2.123-4.006c-1.789-4.139-2.684-8.841-2.684-14.102c0-9.001,1.482-16.923,4.447-23.76
		c0.693-1.629,1.482-3.205,2.363-4.727c3.553-6.091,7.879-10.257,12.982-12.501c2.055-0.828,3.938-0.761,5.648,0.2
		c0.641,0.455,1.24,1.068,1.803,1.844C1094.231,121.73,1094.579,122.305,1094.872,122.919"/>
	<path fill="#E75113" d="M10.555,248.854c0.945-7.723,4.999-20.056,12.162-37.002c7.163-16.945,13.942-31.79,20.335-44.531
		c6.391-12.742,10.059-19.756,11.004-21.043c1.458-2.402,3.56-3.604,6.307-3.604H79.41c3.347,0,4.204,1.846,2.575,5.533
		c-6.522,11.499-13.128,23.983-19.821,37.453c3.518-4.891,7.208-9.544,11.069-13.964c3.861-4.418,8.385-9.074,13.578-13.965
		c5.19-4.891,10.682-8.794,16.474-11.712c5.791-2.916,11.346-4.376,16.667-4.376c3.517,0,6.391,0.408,8.623,1.223
		c2.23,0.816,3.71,1.953,4.44,3.411c0.728,1.46,1.114,3.047,1.159,4.762c0.042,1.718-0.322,3.604-1.095,5.663
		c-0.772,2.06-1.608,3.97-2.509,5.728c-0.901,1.76-1.824,3.539-2.767,5.341c-0.515,0.858-0.859,1.46-1.03,1.802
		c5.921-7.722,12.826-14.306,20.721-19.756c7.894-5.447,15.316-8.173,22.266-8.173c5.834,0,10.081,1.159,12.741,3.476
		c2.659,2.316,3.882,5.084,3.668,8.301c-0.215,3.218-1.309,6.844-3.281,10.876c-13.472,26.171-21.281,41.441-23.424,45.817
		c-1.718,3.433-3.089,6.586-4.119,9.46c-1.03,2.876-1.717,5.276-2.059,7.207c-0.344,1.931-0.431,3.562-0.257,4.891
		c0.171,1.332,0.579,2.297,1.222,2.896c0.644,0.601,1.436,0.9,2.381,0.9c3.26,0,7.121-1.866,11.583-5.599
		c4.461-3.732,8.644-8.192,12.549-13.385c3.903-5.19,7.099-9.566,9.588-13.128c2.488-3.56,4.161-6.155,5.019-7.786
		c1.716-2.488,3.733-3.131,6.05-1.931c2.316,1.203,2.744,3.176,1.287,5.92c-0.688,1.46-1.975,3.842-3.861,7.144
		c-1.889,3.304-4.936,7.915-9.138,13.835c-4.205,5.921-8.559,11.349-13.064,16.281c-4.504,4.935-9.781,9.267-15.83,12.999
		c-6.049,3.732-11.863,5.598-17.439,5.598c-9.182,0-15.231-3.688-18.147-11.067c-2.918-7.378-1.802-17.933,3.346-31.661
		c4.376-10.296,11.239-23.724,20.592-40.283c1.115-2.145,1.48-3.582,1.095-4.312c-0.387-0.729-1.352-0.966-2.896-0.708
		c-7.124,1.631-15.209,8.988-24.261,22.072c-9.053,13.084-17.397,30.782-25.032,53.09c-1.718,5.063-3.111,8.259-4.184,9.588
		c-1.073,1.331-2.767,1.995-5.083,1.995H74.391c-4.034,0-5.792-1.758-5.276-5.276c3.346-16.731,13.598-42.473,30.759-77.222
		c0.686-1.973,0.857-3.218,0.515-3.732c-0.344-0.515-1.202-0.686-2.574-0.515c-5.578,0.858-13.578,7.207-24.003,19.048
		c-10.425,11.841-19.199,25.44-26.319,40.799c-4.206,8.838-7.124,15.359-8.752,19.563c-0.945,2.489-2.018,4.334-3.218,5.534
		c-1.202,1.202-2.747,1.802-4.633,1.802H15.832C12.057,254.13,10.298,252.372,10.555,248.854"/>
	<path fill="#E75113" d="M186.398,212.688c2.745-6.776,8.922-19.132,18.533-37.066c9.609-17.932,15.014-27.713,16.217-29.344
		c1.458-2.401,3.646-3.604,6.563-3.604h18.791c3.346,0,4.203,1.846,2.574,5.535c-1.03,1.887-6.178,11.861-15.445,29.922
		c-9.266,18.063-14.716,28.723-16.345,31.982c-4.291,9.267-6.435,15.959-6.435,20.078c0,3.519,1.33,5.276,3.99,5.276
		c2.401,0,4.911-0.856,7.529-2.574c2.616-1.715,4.997-3.732,7.143-6.049c2.144-2.316,4.525-5.469,7.143-9.459
		c2.617-3.99,4.718-7.4,6.306-10.232c1.587-2.831,3.624-6.52,6.114-11.068c3.089-6.178,6.799-13.276,11.133-21.3
		c4.332-8.022,7.935-14.628,10.811-19.82c2.873-5.19,4.524-8.086,4.955-8.688c1.457-2.401,3.646-3.604,6.564-3.604h18.79
		c1.629,0,2.68,0.494,3.153,1.479c0.471,0.987,0.277,2.339-0.579,4.056c-0.515,1.115-5.663,11.132-15.444,30.051
		c-9.782,18.919-15.231,29.537-16.345,31.854c-1.116,2.403-2.168,4.936-3.153,7.594c-0.988,2.66-1.825,5.386-2.51,8.173
		c-0.688,2.789-0.817,5.084-0.386,6.886c0.428,1.802,1.458,2.702,3.089,2.702c3.26,0,7.12-1.866,11.583-5.599
		c4.46-3.732,8.642-8.192,12.548-13.385c3.903-5.19,7.099-9.566,9.589-13.128c2.487-3.56,4.16-6.155,5.019-7.786
		c1.629-2.401,3.581-3.024,5.856-1.866c2.272,1.158,2.767,3.111,1.48,5.855c-0.687,1.46-1.975,3.819-3.861,7.079
		c-1.889,3.262-4.913,7.851-9.074,13.771c-4.163,5.92-8.494,11.325-12.999,16.216c-4.504,4.891-9.781,9.202-15.83,12.935
		c-6.049,3.732-11.863,5.599-17.439,5.599c-6.093,0-10.92-1.821-14.479-5.47c-3.562-3.646-5.341-8.771-5.341-15.38
		c-12.613,13.9-24.283,20.85-35.007,20.85c-9.182,0-15.232-3.646-18.148-10.939C180.133,236.928,181.25,226.416,186.398,212.688"/>
	<path fill="#E75113" d="M317.325,255.932c-10.296,0-18.556-2.445-24.776-7.336c-6.221-4.891-9.652-10.854-10.296-17.89
		c-0.643-7.034,0.129-14.049,2.317-21.043c2.188-6.992,6.435-12.935,12.741-17.825c6.307-4.891,13.405-7.336,21.301-7.336
		c1.629,0,3.218,0.086,4.761,0.257c4.547-6.178,8.859-11.583,12.935-16.216c4.074-4.634,8.752-9.245,14.029-13.836
		c5.277-4.589,10.875-8.108,16.795-10.554c5.921-2.445,11.97-3.668,18.148-3.668c3.774,0,6.348,0.56,7.721,1.674
		c1.372,1.114,1.716,2.66,1.031,4.633c-0.344,1.116-1.332,2.812-2.961,5.084c-1.631,2.274-3.41,5.276-5.341,9.009
		s-3.497,8.002-4.697,12.806c-0.946,3.69-2.362,9.247-4.247,16.667c-1.889,7.423-3.005,11.734-3.347,12.935
		c10.21,1.803,19.949-3.217,29.216-15.058c1.544-1.887,3.301-2.23,5.276-1.029c1.973,1.202,2.317,2.96,1.029,5.276
		c-4.118,7.465-9.246,13.192-15.379,17.182c-6.135,3.99-13.922,6.242-23.36,6.757c-5.234,12.613-12.399,22.353-21.493,29.216
		c-9.096,6.865-19.221,10.296-30.374,10.296H317.325z M312.305,240.745h0.773c12.268-1.201,21.921-10.725,28.958-28.572
		c-10.469-2.06-18.534-3.089-24.197-3.089c-7.637,0-13.384,2.918-17.246,8.752c-3.175,4.806-3.905,9.652-2.187,14.543
		C300.979,237.7,305.612,240.487,312.305,240.745 M334.185,187.462c2.059,0.515,4.611,1.437,7.657,2.768
		c3.045,1.331,5.213,2.425,6.5,3.281c0.944-3.346,2.079-7.12,3.41-11.325c1.329-4.203,2.595-8.173,3.797-11.905
		c1.2-3.732,1.973-6.113,2.317-7.143c-4.035,2.746-8.237,6.37-12.613,10.875S337.187,183.002,334.185,187.462"/>
	<path fill="#E75113" d="M389.563,212.688c1.887-4.633,5.663-12.397,11.326-23.295c5.663-10.896,10.811-20.528,15.445-28.894
		c4.632-8.366,7.291-13.105,7.979-14.222c1.458-2.401,3.646-3.604,6.563-3.604h18.791c1.629,0,2.681,0.494,3.154,1.479
		c0.471,0.987,0.277,2.339-0.579,4.055c-0.515,1.116-5.663,11.134-15.445,30.053c-9.781,18.918-15.231,29.536-16.345,31.853
		c-1.117,2.403-2.168,4.936-3.154,7.594c-0.987,2.66-1.823,5.387-2.509,8.173c-0.688,2.789-0.817,5.084-0.386,6.886
		c0.429,1.802,1.458,2.703,3.089,2.703c3.259,0,7.121-1.867,11.583-5.6c4.461-3.732,8.643-8.192,12.549-13.385
		c3.903-5.19,7.098-9.566,9.587-13.128c2.489-3.56,4.162-6.155,5.02-7.786c1.114-1.371,2.381-2.079,3.797-2.124
		c1.416-0.042,2.552,0.579,3.411,1.866c0.856,1.287,0.9,2.703,0.128,4.247c-0.515,1.117-1.48,2.896-2.896,5.342
		s-3.561,5.942-6.435,10.489c-2.875,4.549-6.135,9.009-9.781,13.385c-3.648,4.376-7.574,8.623-11.777,12.741
		c-4.204,4.119-8.796,7.465-13.77,10.039c-4.978,2.574-9.826,3.861-14.544,3.861c-9.182,0-15.231-3.688-18.147-11.068
		C383.298,236.971,384.416,226.417,389.563,212.688 M435.896,113.072c0.772-4.891,3.131-9.094,7.079-12.613
		c3.945-3.517,8.279-5.276,12.999-5.276c4.718,0,8.514,1.76,11.39,5.276c2.874,3.52,3.926,7.723,3.153,12.613
		c-0.772,4.977-3.111,9.224-7.015,12.741c-3.905,3.52-8.258,5.278-13.062,5.278c-4.807,0-8.623-1.759-11.455-5.278
		C436.153,122.296,435.124,118.049,435.896,113.072"/>
	<path fill="#E75113" d="M449.702,198.273c6.092-15.873,15.594-29.429,28.508-40.67c12.912-11.24,25.461-16.86,37.646-16.86
		c5.232,0,9.673,0.945,13.32,2.831c3.646,1.889,6.262,4.398,7.852,7.529c1.586,3.133,2.615,6.691,3.089,10.683
		c0.471,3.989,0.106,8.044-1.095,12.162c-2.918,12.613-8.365,21.28-16.344,25.998c-5.664,3.262-10.856,3.732-15.574,1.416
		c-4.463-2.145-6.479-6.005-6.049-11.584c0.086-1.287,0.342-2.658,0.772-4.118c1.974-6.436,5.705-11.281,11.196-14.543
		c5.49-3.26,10.039-3.604,13.644-1.031c1.2-3.172,1.371-6.132,0.515-8.879c-0.859-2.746-2.789-4.119-5.791-4.119
		c-5.836,0-12.594,3.668-20.271,11.005c-7.68,7.336-13.964,16.409-18.854,27.22c-4.634,10.727-6.33,19.563-5.084,26.513
		c1.242,6.95,4.697,11.197,10.36,12.742c6.005,1.544,12.439,1.094,19.307-1.352c6.862-2.445,13.854-7.057,20.978-13.836
		c7.12-6.776,13.385-15.315,18.79-25.611c1.629-3.174,3.732-4.247,6.307-3.218c1.114,0.515,1.844,1.396,2.188,2.639
		c0.342,1.244,0.258,2.51-0.258,3.797c-9.266,18.706-21.064,33.484-35.393,44.338c-14.33,10.855-29.344,15.551-45.046,14.093
		c-12.441-0.945-21.129-6.777-26.062-17.504C443.416,227.188,443.866,213.975,449.702,198.273"/>
	<path fill="#E75113" d="M532.752,196.729c3.089-6.863,7.057-13.6,11.905-20.206c4.847-6.606,10.21-12.591,16.088-17.954
		c5.876-5.361,12.291-9.673,19.241-12.935c6.949-3.26,13.685-4.891,20.205-4.891c10.726,0,17.762,4.42,21.108,13.256
		c2.574-4.718,4.074-7.291,4.504-7.722c1.631-2.401,3.818-3.604,6.564-3.604h17.117c1.629,0,2.682,0.494,3.154,1.479
		c0.471,0.987,0.277,2.339-0.58,4.055c-0.688,1.46-5.92,11.712-15.701,30.76s-15.145,29.517-16.088,31.403
		c-1.117,2.232-2.168,4.697-3.154,7.4s-1.822,5.428-2.508,8.173c-0.689,2.747-0.818,5.02-0.387,6.821
		c0.428,1.802,1.458,2.702,3.09,2.702c2.656,0,5.746-1.287,9.266-3.86c3.518-2.574,6.82-5.619,9.908-9.139
		c3.09-3.517,6.156-7.313,9.203-11.39c3.045-4.073,5.385-7.379,7.016-9.91c1.629-2.53,2.744-4.312,3.346-5.341
		c0.6-1.03,1.5-1.738,2.703-2.124c1.199-0.386,2.316-0.364,3.346,0.064c2.488,1.287,2.961,3.218,1.416,5.791
		c-0.688,1.46-1.975,3.842-3.861,7.144c-1.889,3.304-4.936,7.915-9.139,13.835c-4.205,5.921-8.559,11.349-13.063,16.281
		c-4.506,4.935-9.781,9.267-15.83,12.999s-11.863,5.599-17.44,5.599c-5.147,0-9.439-1.328-12.869-3.99
		c-3.434-2.658-5.58-6.435-6.436-11.325c-11.242,10.383-22.139,15.572-32.689,15.572c-7.381,0-13.496-2.358-18.342-7.078
		c-4.849-4.718-7.593-11.433-8.236-20.142C524.966,219.746,527.347,209.172,532.752,196.729 M564.67,234.567
		c11.584,0,23.424-12.913,35.521-38.739c2.66-5.921,4.763-11.197,6.308-15.831c1.544-4.633,2.487-8.688,2.831-12.162
		c0.342-3.475-0.108-6.134-1.352-7.979c-1.246-1.844-3.24-2.767-5.984-2.767c-5.492,0-11.605,3.712-18.34,11.132
		c-6.737,7.423-12.635,16.625-17.697,27.607c-7.639,16.216-10.296,27.586-7.979,34.105
		C559.008,233.022,561.236,234.567,564.67,234.567"/>
	<path fill="#E75113" d="M631.245,248.854c0.945-7.723,5-20.056,12.164-37.002c7.162-16.945,13.939-31.79,20.334-44.531
		c6.391-12.742,10.059-19.756,11.004-21.043c1.459-2.402,3.561-3.604,6.307-3.604h19.049c3.346,0,4.203,1.846,2.574,5.533
		c-6.523,11.499-13.129,23.983-19.82,37.453c3.516-4.891,7.207-9.544,11.068-13.964c3.859-4.418,8.385-9.074,13.578-13.965
		c5.189-4.891,10.682-8.794,16.473-11.712c5.793-2.916,11.346-4.376,16.668-4.376c3.518,0,6.391,0.408,8.623,1.223
		c2.23,0.816,3.709,1.953,4.439,3.411c0.729,1.46,1.115,3.047,1.158,4.762c0.043,1.718-0.322,3.604-1.094,5.663
		s-1.609,3.97-2.51,5.728c-0.9,1.76-1.824,3.539-2.768,5.341c-0.514,0.858-0.857,1.46-1.029,1.802
		c5.92-7.722,12.826-14.306,20.721-19.756c7.895-5.447,15.316-8.173,22.266-8.173c5.834,0,10.082,1.159,12.742,3.476
		c2.658,2.316,3.881,5.084,3.668,8.301c-0.215,3.218-1.309,6.844-3.281,10.876c-13.473,26.171-21.281,41.441-23.424,45.817
		c-1.719,3.433-3.09,6.586-4.119,9.46c-1.029,2.876-1.717,5.276-2.059,7.207c-0.344,1.931-0.432,3.562-0.258,4.891
		c0.17,1.332,0.578,2.297,1.223,2.896c0.643,0.601,1.436,0.9,2.381,0.9c3.26,0,7.121-1.866,11.584-5.599
		c4.459-3.732,8.643-8.192,12.547-13.385c3.904-5.19,7.1-9.566,9.59-13.128c2.486-3.56,4.16-6.155,5.02-7.786
		c1.715-2.488,3.732-3.131,6.049-1.931c2.316,1.203,2.744,3.176,1.287,5.92c-0.689,1.46-1.975,3.842-3.861,7.144
		c-1.889,3.304-4.936,7.915-9.139,13.835c-4.205,5.921-8.559,11.349-13.063,16.281c-4.506,4.935-9.781,9.267-15.83,12.999
		c-6.051,3.732-11.863,5.598-17.439,5.598c-9.184,0-15.232-3.688-18.148-11.067c-2.918-7.378-1.801-17.933,3.348-31.661
		c4.375-10.296,11.238-23.724,20.592-40.283c1.113-2.145,1.48-3.582,1.094-4.312c-0.387-0.729-1.352-0.966-2.896-0.708
		c-7.121,1.631-15.209,8.988-24.26,22.072c-9.053,13.084-17.396,30.782-25.033,53.09c-1.717,5.063-3.109,8.259-4.182,9.588
		c-1.074,1.331-2.768,1.995-5.084,1.995h-14.414c-4.035,0-5.793-1.758-5.277-5.276c3.346-16.731,13.598-42.473,30.76-77.222
		c0.686-1.973,0.857-3.218,0.516-3.732c-0.344-0.515-1.203-0.686-2.574-0.515c-5.578,0.858-13.578,7.207-24.004,19.048
		c-10.424,11.841-19.199,25.44-26.318,40.799c-4.205,8.838-7.123,15.359-8.752,19.563c-0.945,2.489-2.018,4.334-3.219,5.534
		c-1.203,1.202-2.746,1.802-4.633,1.802h-15.059C632.749,254.13,630.989,252.372,631.245,248.854"/>
	<path fill="#E75113" d="M807.346,212.688c1.887-4.633,5.662-12.397,11.326-23.295c5.662-10.896,10.811-20.528,15.445-28.894
		c4.631-8.366,7.289-13.105,7.979-14.222c1.457-2.401,3.646-3.604,6.563-3.604h18.791c1.629,0,2.682,0.494,3.154,1.479
		c0.471,0.987,0.277,2.339-0.58,4.055c-0.514,1.116-5.662,11.134-15.443,30.053c-9.781,18.918-15.232,29.536-16.346,31.853
		c-1.117,2.403-2.168,4.936-3.154,7.594c-0.986,2.66-1.822,5.387-2.51,8.173c-0.688,2.789-0.816,5.084-0.385,6.886
		c0.428,1.802,1.457,2.703,3.088,2.703c3.26,0,7.121-1.867,11.584-5.6c4.461-3.732,8.643-8.192,12.549-13.385
		c3.902-5.19,7.098-9.566,9.588-13.128c2.488-3.56,4.16-6.155,5.02-7.786c1.113-1.371,2.381-2.079,3.797-2.124
		c1.416-0.042,2.551,0.579,3.41,1.866c0.857,1.287,0.9,2.703,0.129,4.247c-0.516,1.117-1.48,2.896-2.896,5.342
		s-3.561,5.942-6.436,10.489c-2.875,4.549-6.135,9.009-9.781,13.385s-7.572,8.623-11.775,12.741
		c-4.205,4.119-8.797,7.465-13.771,10.039c-4.977,2.574-9.826,3.861-14.543,3.861c-9.182,0-15.23-3.688-18.146-11.068
		C801.083,236.971,802.198,226.417,807.346,212.688 M853.678,113.072c0.773-4.891,3.131-9.094,7.08-12.613
		c3.945-3.517,8.279-5.276,12.998-5.276s8.514,1.76,11.391,5.276c2.873,3.52,3.926,7.723,3.152,12.613
		c-0.771,4.977-3.111,9.224-7.014,12.741c-3.906,3.52-8.26,5.278-13.063,5.278c-4.807,0-8.623-1.759-11.455-5.278
		C853.936,122.296,852.907,118.049,853.678,113.072"/>
	<path fill="#E75113" d="M883.704,255.932c-10.297,0-18.557-2.445-24.775-7.336c-6.223-4.891-9.652-10.854-10.297-17.89
		c-0.643-7.034,0.129-14.049,2.316-21.043c2.189-6.992,6.436-12.935,12.742-17.825s13.404-7.336,21.301-7.336
		c1.629,0,3.217,0.086,4.76,0.257c4.549-6.178,8.859-11.583,12.936-16.216c4.074-4.634,8.752-9.245,14.029-13.836
		c5.277-4.589,10.875-8.108,16.795-10.554c5.922-2.445,11.971-3.668,18.148-3.668c3.773,0,6.348,0.56,7.721,1.674
		c1.371,1.114,1.717,2.66,1.031,4.633c-0.344,1.116-1.332,2.812-2.961,5.084c-1.631,2.274-3.41,5.276-5.342,9.009
		c-1.93,3.732-3.496,8.002-4.697,12.806c-0.945,3.69-2.361,9.247-4.246,16.667c-1.889,7.423-3.006,11.734-3.348,12.935
		c10.211,1.803,19.949-3.217,29.217-15.058c1.543-1.887,3.301-2.23,5.275-1.029c1.973,1.202,2.316,2.96,1.029,5.276
		c-4.117,7.465-9.246,13.192-15.379,17.182c-6.135,3.99-13.922,6.242-23.359,6.757c-5.234,12.613-12.4,22.353-21.494,29.216
		c-9.096,6.865-19.221,10.296-30.373,10.296H883.704z M878.684,240.745h0.771c12.27-1.201,21.922-10.725,28.959-28.572
		c-10.469-2.06-18.535-3.089-24.197-3.089c-7.637,0-13.385,2.918-17.246,8.752c-3.174,4.806-3.904,9.652-2.188,14.543
		C867.358,237.7,871.991,240.487,878.684,240.745 M900.563,187.462c2.059,0.515,4.611,1.437,7.658,2.768
		c3.045,1.331,5.213,2.425,6.5,3.281c0.943-3.346,2.078-7.12,3.408-11.325c1.33-4.203,2.596-8.173,3.799-11.905
		c1.199-3.732,1.973-6.113,2.316-7.143c-4.035,2.746-8.236,6.37-12.613,10.875S903.565,183.002,900.563,187.462"/>
	<path fill="#E75113" d="M961.733,198.273c5.92-15.786,15.379-29.322,28.379-40.606c12.998-11.281,25.631-16.924,37.902-16.924
		c7.807,0,13.621,2.339,17.438,7.014c3.818,4.678,5.385,10.276,4.699,16.796c-1.203,10.727-7.207,20.035-18.018,27.929
		c-7.811,5.578-15.555,9.633-23.232,12.162c-7.68,2.532-13.963,4.012-18.854,4.44c-1.719,7.123-1.867,12.893-0.451,17.311
		c1.416,4.42,4.268,7.143,8.559,8.173c9.609,2.489,19.691,0.173,30.246-6.95c10.553-7.121,19.99-18.404,28.314-33.849
		c1.199-2.144,2.959-2.832,5.275-2.06c1.201,0.515,1.951,1.352,2.252,2.51s0.15,2.253-0.449,3.282
		c-5.578,11.67-12.377,21.988-20.4,30.953c-8.023,8.967-17.16,15.938-27.412,20.914c-10.254,4.975-20.574,6.992-30.953,6.049
		c-12.355-0.944-20.809-6.777-25.355-17.504C955.124,227.188,955.811,213.975,961.733,198.273 M993.135,197.243
		c15.615-4.376,27.24-11.583,34.879-21.622c3.688-4.633,5.533-8.707,5.533-12.227c0-2.658-1.029-4.225-3.088-4.697
		c-2.059-0.471-4.721,0.321-7.98,2.381c-5.32,3.433-10.553,8.152-15.701,14.157c-5.148,6.007-9.354,12.612-12.613,19.82
		c-0.174,0.344-0.385,0.816-0.643,1.416L993.135,197.243z"/>
</g>
<g id="Layer_2">
</g>
</svg>
